<svg xmlns="http://www.w3.org/2000/svg" xmlns:xlink="http://www.w3.org/1999/xlink" contentStyleType="text/css" data-diagram-type="DESCRIPTION" height="621px" preserveAspectRatio="none" style="width:1909px;height:621px;background:#FAFCFF;" version="1.1" viewBox="0 0 1909 621" width="1909px" zoomAndPan="magnify"><?plantuml 1.2026.6?><defs/><g><rect fill="#FAFCFF" height="621" style="stroke:none;stroke-width:1;" width="1909" x="0" y="0"/><g class="title" data-source-line="10"><text fill="#000000" font-family="sans-serif" font-size="22" font-weight="700" lengthAdjust="spacing" textLength="536.4938" x="685.6889" y="38.5181">Workspace State &#8212; responsibilities and evidence</text></g><!--entity User--><g class="entity" data-qualified-name="User" data-source-line="11" id="ent0001"><ellipse cx="54.5538" cy="330.9641" fill="#FFFFFF" rx="8" ry="8" style="stroke:#000000;stroke-width:1;"/><path d="M54.5538,338.9641 L54.5538,365.9641 M41.5538,346.9641 L67.5538,346.9641 M54.5538,365.9641 L41.5538,380.9641 M54.5538,365.9641 L67.5538,380.9641" fill="none" style="stroke:#000000;stroke-width:1;"/><text fill="#000000" font-family="sans-serif" font-size="14" lengthAdjust="spacing" textLength="87.1077" x="11" y="397.93">Desktop user</text></g><!--entity CLI--><g class="entity" data-qualified-name="CLI" data-source-line="12" id="ent0002"><rect fill="#EAF4FA" height="39.0679" rx="2.5" ry="2.5" style="stroke:#000000;stroke-width:1;" width="77.6658" x="159" y="342.4641"/><text fill="#000000" font-family="sans-serif" font-size="14" lengthAdjust="spacing" textLength="57.6658" x="169" y="367.43">wsctl CLI</text></g><!--entity Coordinator--><g class="entity" data-qualified-name="Coordinator" data-source-line="13" id="ent0003"><rect fill="#EAF4FA" height="58.1358" rx="2.5" ry="2.5" style="stroke:#000000;stroke-width:1;" width="205.7513" x="360.5" y="332.9641"/><text fill="#000000" font-family="sans-serif" font-size="14" lengthAdjust="spacing" textLength="185.7513" x="370.5" y="357.93">GNOME session coordinator</text><text fill="#000000" font-family="sans-serif" font-size="14" lengthAdjust="spacing" textLength="128.5895" x="370.5" y="376.998">One lifecycle owner</text></g><!--entity Operation--><g class="entity" data-qualified-name="Operation" data-source-line="14" id="ent0004"><path d="M927,316.4641 C927,306.4641 996.8778,306.4641 996.8778,306.4641 C996.8778,306.4641 1066.7556,306.4641 1066.7556,316.4641 L1066.7556,363.5999 C1066.7556,373.5999 996.8778,373.5999 996.8778,373.5999 C996.8778,373.5999 927,373.5999 927,363.5999 L927,316.4641" fill="#E8F5EE" style="stroke:#000000;stroke-width:1;"/><path d="M927,316.4641 C927,326.4641 996.8778,326.4641 996.8778,326.4641 C996.8778,326.4641 1066.7556,326.4641 1066.7556,316.4641" fill="none" style="stroke:#000000;stroke-width:1;"/><text fill="#000000" font-family="sans-serif" font-size="14" lengthAdjust="spacing" textLength="119.7556" x="937" y="345.43">Operation context</text><text fill="#000000" font-family="sans-serif" font-size="14" lengthAdjust="spacing" textLength="109.9976" x="937" y="364.498">Recovery journal</text></g><!--entity Checkpoints--><g class="entity" data-qualified-name="Checkpoints" data-source-line="15" id="ent0005"><path d="M913,418.4641 C913,408.4641 997.1157,408.4641 997.1157,408.4641 C997.1157,408.4641 1081.2314,408.4641 1081.2314,418.4641 L1081.2314,465.5999 C1081.2314,475.5999 997.1157,475.5999 997.1157,475.5999 C997.1157,475.5999 913,475.5999 913,465.5999 L913,418.4641" fill="#E8F5EE" style="stroke:#000000;stroke-width:1;"/><path d="M913,418.4641 C913,428.4641 997.1157,428.4641 997.1157,428.4641 C997.1157,428.4641 1081.2314,428.4641 1081.2314,418.4641" fill="none" style="stroke:#000000;stroke-width:1;"/><text fill="#000000" font-family="sans-serif" font-size="14" lengthAdjust="spacing" textLength="148.2314" x="923" y="447.43">Versioned checkpoints</text><text fill="#000000" font-family="sans-serif" font-size="14" lengthAdjust="spacing" textLength="125.4535" x="923" y="466.498">Last good + history</text></g><!--entity Providers--><g class="entity" data-qualified-name="Providers" data-source-line="16" id="ent0006"><rect fill="#EAF4FA" height="77.2038" rx="2.5" ry="2.5" style="stroke:#000000;stroke-width:1;" width="194.0193" x="900" y="510.4641"/><text fill="#000000" font-family="sans-serif" font-size="14" lengthAdjust="spacing" textLength="139.9715" x="910" y="535.43">Application providers</text><text fill="#000000" font-family="sans-serif" font-size="14" lengthAdjust="spacing" textLength="174.0193" x="910" y="554.498">Terminal &#183; browser &#183; editor</text><text fill="#000000" font-family="sans-serif" font-size="14" lengthAdjust="spacing" textLength="144.6474" x="910" y="573.5659">Files &#183; social apps &#183; VM</text></g><!--entity Companions--><g class="entity" data-qualified-name="Companions" data-source-line="17" id="ent0007"><rect fill="#EAF4FA" height="58.1358" rx="2.5" ry="2.5" style="stroke:#000000;stroke-width:1;" width="247.4431" x="1327.5" y="548.9641"/><text fill="#000000" font-family="sans-serif" font-size="14" lengthAdjust="spacing" textLength="158.2274" x="1337.5" y="573.93">Application companions</text><text fill="#000000" font-family="sans-serif" font-size="14" lengthAdjust="spacing" textLength="227.4431" x="1337.5" y="592.998">Native application identity/content</text></g><!--entity Placement--><g class="entity" data-qualified-name="Placement" data-source-line="18" id="ent0008"><rect fill="#EAF4FA" height="58.1358" rx="2.5" ry="2.5" style="stroke:#000000;stroke-width:1;" width="217.2172" x="1342.5" y="374.9641"/><text fill="#000000" font-family="sans-serif" font-size="14" lengthAdjust="spacing" textLength="89.8796" x="1352.5" y="399.93">gnome-winctl</text><text fill="#000000" font-family="sans-serif" font-size="14" lengthAdjust="spacing" textLength="197.2172" x="1352.5" y="418.998">Native identity and placement</text></g><!--entity Shell--><g class="entity" data-qualified-name="Shell" data-source-line="19" id="ent0009"><rect fill="#EAF4FA" height="39.0679" rx="2.5" ry="2.5" style="stroke:#000000;stroke-width:1;" width="129.8716" x="1766" y="384.4641"/><text fill="#000000" font-family="sans-serif" font-size="14" lengthAdjust="spacing" textLength="109.8716" x="1776" y="409.43">GNOME / Mutter</text></g><!--entity HUD--><g class="entity" data-qualified-name="HUD" data-source-line="20" id="ent0010"><rect fill="#EAF4FA" height="58.1358" rx="2.5" ry="2.5" style="stroke:#000000;stroke-width:1;" width="190.5614" x="901.5" y="183.9641"/><text fill="#000000" font-family="sans-serif" font-size="14" lengthAdjust="spacing" textLength="71.1477" x="911.5" y="208.93">Login HUD</text><text fill="#000000" font-family="sans-serif" font-size="14" lengthAdjust="spacing" textLength="170.5614" x="911.5" y="227.998">Progress and user actions</text></g><!--entity Alerts--><g class="entity" data-qualified-name="Alerts" data-source-line="21" id="ent0011"><rect fill="#EAF4FA" height="58.1358" rx="2.5" ry="2.5" style="stroke:#000000;stroke-width:1;" width="180.2854" x="373.5" y="62.9641"/><text fill="#000000" font-family="sans-serif" font-size="14" lengthAdjust="spacing" textLength="138.7395" x="383.5" y="87.93">Owned-system alerts</text><text fill="#000000" font-family="sans-serif" font-size="14" lengthAdjust="spacing" textLength="160.2854" x="383.5" y="106.998">Explicit source inventory</text></g><!--entity GC--><g class="entity" data-qualified-name="GC" data-source-line="22" id="ent0012"><rect fill="#EAF4FA" height="58.1358" rx="2.5" ry="2.5" style="stroke:#000000;stroke-width:1;" width="180.1314" x="373.5" y="155.9641"/><text fill="#000000" font-family="sans-serif" font-size="14" lengthAdjust="spacing" textLength="71.2457" x="383.5" y="180.93">gc-profiled</text><text fill="#000000" font-family="sans-serif" font-size="14" lengthAdjust="spacing" textLength="160.1314" x="383.5" y="199.998">External task scheduling</text></g><g class="entity" data-qualified-name="GMN25" data-source-line="36" id="ent0026"><path d="M298,426.4641 L298,507.2882 A0,0 0 0 0 298,507.2882 L628.7253,507.2882 A0,0 0 0 0 628.7253,507.2882 L628.7253,436.4641 L618.7253,426.4641 L467.5,426.4641 L463.5,391.1441 L459.5,426.4641 L298,426.4641 A0,0 0 0 0 298,426.4641" fill="#FFFFFF" style="stroke:#000000;stroke-width:1;"/><path d="M618.7253,426.4641 L618.7253,436.4641 L628.7253,436.4641 L618.7253,426.4641" fill="#FFFFFF" style="stroke:#000000;stroke-width:1;"/><text fill="#000000" font-family="sans-serif" font-size="13" lengthAdjust="spacing" textLength="263.2632" x="304" y="445.3611">Each worker carries boot, login generation,</text><text fill="#000000" font-family="sans-serif" font-size="13" lengthAdjust="spacing" textLength="261.2612" x="304" y="463.0671">operation ID, mode, attempt and deadline.</text><text fill="#000000" font-family="sans-serif" font-size="13" lengthAdjust="spacing" textLength="309.7253" x="304" y="480.7731">Cancellation withdraws authorization immediately;</text><text fill="#000000" font-family="sans-serif" font-size="13" lengthAdjust="spacing" textLength="272.8312" x="304" y="498.4792">recovery retains ownership until completion.</text></g><g class="entity" data-qualified-name="GMN28" data-source-line="42" id="ent0029"><path d="M1291,468.4641 L1291,513.8761 A0,0 0 0 0 1291,513.8761 L1610.9612,513.8761 A0,0 0 0 0 1610.9612,513.8761 L1610.9612,478.4641 L1600.9612,468.4641 L1455,468.4641 L1451,433.0641 L1447,468.4641 L1291,468.4641 A0,0 0 0 0 1291,468.4641" fill="#FFFFFF" style="stroke:#000000;stroke-width:1;"/><path d="M1600.9612,468.4641 L1600.9612,478.4641 L1610.9612,478.4641 L1600.9612,468.4641" fill="#FFFFFF" style="stroke:#000000;stroke-width:1;"/><text fill="#000000" font-family="sans-serif" font-size="13" lengthAdjust="spacing" textLength="202.2802" x="1297" y="487.3611">Accepted / waiting is not verified.</text><text fill="#000000" font-family="sans-serif" font-size="13" lengthAdjust="spacing" textLength="298.9612" x="1297" y="505.0671">Deferred requests retain physical monitor intent.</text></g><!--link User to CLI--><g class="link" data-entity-1="ent0001" data-entity-2="ent0002" data-link-type="dependency" data-source-line="23" id="lnk13"><path d="M98.34,361.9641 C117.54,361.9641 135,361.9641 153.64,361.9641" fill="none" id="User-to-CLI" style="stroke:#285879;stroke-width:1;"/><polygon fill="#285879" points="158.64,361.9641,149.64,357.9641,153.64,361.9641,149.64,365.9641,158.64,361.9641" style="stroke:#285879;stroke-width:1;stroke-linejoin:miter;stroke-miterlimit:10;"/></g><!--link CLI to Coordinator--><g class="link" data-entity-1="ent0002" data-entity-2="ent0003" data-link-type="dependency" data-source-line="24" id="lnk14"><path d="M237.03,361.9641 C269.31,361.9641 312.16,361.9641 355.48,361.9641" fill="none" id="CLI-to-Coordinator" style="stroke:#285879;stroke-width:1;"/><polygon fill="#285879" points="360.48,361.9641,351.48,357.9641,355.48,361.9641,351.48,365.9641,360.48,361.9641" style="stroke:#285879;stroke-width:1;stroke-linejoin:miter;stroke-miterlimit:10;"/></g><!--link Coordinator to Operation--><g class="link" data-entity-1="ent0003" data-entity-2="ent0004" data-link-type="dependency" data-source-line="25" id="lnk15"><path d="M571.8342,368.8942 C653.9842,372.8442 767.18,375.0641 870,364.9641 C888.53,363.1441 903.4742,360.8203 921.8042,357.2103" fill="none" id="Coordinator-Operation" style="stroke:#285879;stroke-width:1;"/><polygon fill="#285879" points="566.84,368.6541,575.6375,373.0817,571.8342,368.8942,576.0217,365.091,566.84,368.6541" style="stroke:#285879;stroke-width:1;stroke-linejoin:miter;stroke-miterlimit:10;"/><polygon fill="#285879" points="926.71,356.2441,917.1067,354.0586,921.8042,357.2103,918.6526,361.9078,926.71,356.2441" style="stroke:#285879;stroke-width:1;stroke-linejoin:miter;stroke-miterlimit:10;"/><text fill="#000000" font-family="sans-serif" font-size="13" lengthAdjust="spacing" textLength="111.4621" x="709" y="360.8611">scoped ownership</text></g><!--link Coordinator to Checkpoints--><g class="link" data-entity-1="ent0003" data-entity-2="ent0005" data-link-type="dependency" data-source-line="26" id="lnk16"><path d="M571.4113,383.5215 C601.1713,389.2015 628.87,394.1841 659,398.9641 C745.21,412.6541 839.413,424.3105 907.733,432.2005" fill="none" id="Coordinator-Checkpoints" style="stroke:#285879;stroke-width:1;"/><polygon fill="#285879" points="566.5,382.5841,574.5905,388.2005,571.4113,383.5215,576.0903,380.3423,566.5,382.5841" style="stroke:#285879;stroke-width:1;stroke-linejoin:miter;stroke-miterlimit:10;"/><polygon fill="#285879" points="912.7,432.7741,904.2183,427.768,907.733,432.2005,903.3005,435.7152,912.7,432.7741" style="stroke:#285879;stroke-width:1;stroke-linejoin:miter;stroke-miterlimit:10;"/><text fill="#000000" font-family="sans-serif" font-size="13" lengthAdjust="spacing" textLength="110.1491" x="709.5" y="394.8611">preserve / publish</text></g><!--link Coordinator to Providers--><g class="link" data-entity-1="ent0003" data-entity-2="ent0006" data-link-type="dependency" data-source-line="27" id="lnk17"><path d="M566.64,379.1241 C588.57,385.9841 610.65,395.5641 629,408.9641 C648.41,423.1341 639.56,439.8241 659,453.9641 C729.92,505.5341 822.9652,528.4135 895.0052,539.2035" fill="none" id="Coordinator-to-Providers" style="stroke:#285879;stroke-width:1;"/><polygon fill="#285879" points="899.95,539.9441,891.6418,534.6551,895.0052,539.2035,890.4568,542.5668,899.95,539.9441" style="stroke:#285879;stroke-width:1;stroke-linejoin:miter;stroke-miterlimit:10;"/><text fill="#000000" font-family="sans-serif" font-size="13" lengthAdjust="spacing" textLength="89.0241" x="720" y="449.8611">bounded work</text></g><!--link Providers to Companions--><g class="link" data-entity-1="ent0006" data-entity-2="ent0007" data-link-type="dependency" data-source-line="28" id="lnk18"><path d="M1099.1198,555.4538 C1167.1698,559.8138 1249.0003,565.0636 1322.3303,569.7736" fill="none" id="Providers-Companions" style="stroke:#285879;stroke-width:1;"/><polygon fill="#285879" points="1094.13,555.1341,1102.8558,559.7014,1099.1198,555.4538,1103.3673,551.7177,1094.13,555.1341" style="stroke:#285879;stroke-width:1;stroke-linejoin:miter;stroke-miterlimit:10;"/><polygon fill="#285879" points="1327.32,570.0941,1318.5949,565.5254,1322.3303,569.7736,1318.0821,573.509,1327.32,570.0941" style="stroke:#285879;stroke-width:1;stroke-linejoin:miter;stroke-miterlimit:10;"/><text fill="#000000" font-family="sans-serif" font-size="13" lengthAdjust="spacing" textLength="111.3581" x="1137" y="552.8611">recover and prove</text></g><!--link Providers to Placement--><g class="link" data-entity-1="ent0006" data-entity-2="ent0008" data-link-type="dependency" data-source-line="29" id="lnk19"><path d="M1094.06,515.8841 C1151.12,496.4741 1225,471.7441 1291,450.9641 C1309.94,444.9941 1325.4384,440.2627 1344.9584,434.4427" fill="none" id="Providers-to-Placement" style="stroke:#285879;stroke-width:1;"/><polygon fill="#285879" points="1349.75,433.0141,1339.9823,431.7524,1344.9584,434.4427,1342.2681,439.4189,1349.75,433.0141" style="stroke:#285879;stroke-width:1;stroke-linejoin:miter;stroke-miterlimit:10;"/><text fill="#000000" font-family="sans-serif" font-size="13" lengthAdjust="spacing" textLength="135.5641" x="1125" y="456.8611">intent + request token</text></g><!--link Placement to Shell--><g class="link" data-entity-1="ent0008" data-entity-2="ent0009" data-link-type="dependency" data-source-line="30" id="lnk20"><path d="M1564.56,403.9641 C1631.12,403.9641 1704.35,403.9641 1760.77,403.9641" fill="none" id="Placement-Shell" style="stroke:#285879;stroke-width:1;"/><polygon fill="#285879" points="1559.56,403.9641,1568.56,407.9641,1564.56,403.9641,1568.56,399.9641,1559.56,403.9641" style="stroke:#285879;stroke-width:1;stroke-linejoin:miter;stroke-miterlimit:10;"/><polygon fill="#285879" points="1765.77,403.9641,1756.77,399.9641,1760.77,403.9641,1756.77,407.9641,1765.77,403.9641" style="stroke:#285879;stroke-width:1;stroke-linejoin:miter;stroke-miterlimit:10;"/><text fill="#000000" font-family="sans-serif" font-size="13" lengthAdjust="spacing" textLength="93.5871" x="1642" y="399.8611">apply / observe</text></g><!--link Coordinator to HUD--><g class="link" data-entity-1="ent0003" data-entity-2="ent0010" data-link-type="dependency" data-source-line="31" id="lnk21"><path d="M527.84,332.8341 C565.36,316.4441 614.19,296.5941 659,282.9641 C703.38,269.4641 812.9589,247.5327 896.2089,231.6227" fill="none" id="Coordinator-to-HUD" style="stroke:#285879;stroke-width:1;"/><polygon fill="#285879" points="901.12,230.6841,891.5291,228.4446,896.2089,231.6227,893.0308,236.3024,901.12,230.6841" style="stroke:#285879;stroke-width:1;stroke-linejoin:miter;stroke-miterlimit:10;"/><text fill="#000000" font-family="sans-serif" font-size="13" lengthAdjust="spacing" textLength="99.3591" x="715" y="233.8611">atomic progress</text></g><!--link HUD to Coordinator--><g class="link" data-entity-1="ent0010" data-entity-2="ent0003" data-link-type="dependency" data-source-line="32" id="lnk22"><path d="M959.27,241.9841 C923.95,269.7841 875.15,307.8341 870,309.9641 C842.53,321.3141 682.3828,339.5534 571.5028,351.1634" fill="none" id="HUD-to-Coordinator" style="stroke:#285879;stroke-width:1;"/><polygon fill="#285879" points="566.53,351.6841,575.8976,354.7251,571.5028,351.1634,575.0645,346.7686,566.53,351.6841" style="stroke:#285879;stroke-width:1;stroke-linejoin:miter;stroke-miterlimit:10;"/><text fill="#000000" font-family="sans-serif" font-size="13" lengthAdjust="spacing" textLength="209.9372" x="660" y="305.8611">scoped cancel / acknowledgement</text></g><!--link Alerts to HUD--><g class="link" data-entity-1="ent0011" data-entity-2="ent0010" data-link-type="dependency" data-source-line="33" id="lnk23"><path d="M553.55,104.9741 C636.29,117.9841 762.54,140.1741 870,168.9641 C885.89,173.2241 897.9253,176.8971 913.8653,182.3071" fill="none" id="Alerts-to-HUD" style="stroke:#285879;stroke-width:1;"/><polygon fill="#285879" points="918.6,183.9141,911.363,177.2338,913.8653,182.3071,908.7919,184.8094,918.6,183.9141" style="stroke:#285879;stroke-width:1;stroke-linejoin:miter;stroke-miterlimit:10;"/><text fill="#000000" font-family="sans-serif" font-size="13" lengthAdjust="spacing" textLength="91.0391" x="719" y="119.8611">incident report</text></g><!--link GC to HUD--><g class="link" data-entity-1="ent0012" data-entity-2="ent0010" data-link-type="dependency" data-source-line="34" id="lnk24"><path d="M553.76,189.6641 C650.15,194.7441 798.0869,202.5413 896.4869,207.7213" fill="none" id="GC-to-HUD" style="stroke:#285879;stroke-width:1;"/><polygon fill="#285879" points="901.48,207.9841,892.7027,203.5165,896.4869,207.7213,892.2822,211.5054,901.48,207.9841" style="stroke:#285879;stroke-width:1;stroke-linejoin:miter;stroke-miterlimit:10;"/><text fill="#000000" font-family="sans-serif" font-size="13" lengthAdjust="spacing" textLength="98.6051" x="715.5" y="191.8611">read-only status</text></g></g></svg>