<svg xmlns="http://www.w3.org/2000/svg" xmlns:xlink="http://www.w3.org/1999/xlink" contentStyleType="text/css" data-diagram-type="SEQUENCE" height="1148px" preserveAspectRatio="none" style="width:1160px;height:1148px;background:#FAFCFF;" version="1.1" viewBox="0 0 1160 1148" width="1160px" zoomAndPan="magnify"><?plantuml 1.2026.6?><defs/><g><rect fill="#FAFCFF" height="1148" style="stroke:none;stroke-width:1;" width="1160" x="0" y="0"/><g class="title" data-source-line="5"><text fill="#000000" font-family="sans-serif" font-size="22" font-weight="700" lengthAdjust="spacing" textLength="656.1082" x="251.0896" y="38.5181">Confirmed shutdown &#8212; preparation, proof and cancellation</text></g><rect fill="#FFFFFF" height="606.6902" style="stroke:#000000;stroke-width:1;" width="1129.2874" x="15" y="438.3862"/><rect fill="#FFFFFF" height="275.63" style="stroke:none;stroke-width:1;" width="1129.2874" x="15" y="769.4463"/><g class="participant-lifeline" data-entity-uid="part1" data-qualified-name="User" data-source-line="6" id="part1-lifeline"><g><title>User</title><rect fill="#000000" fill-opacity="0.00000" height="926.0443" width="8" x="39.3089" y="136.032"/><line style="stroke:#000000;stroke-width:1;stroke-dasharray:5,5;" x1="43" x2="43" y1="136.032" y2="1062.0764"/></g></g><g class="participant-lifeline" data-entity-uid="part2" data-qualified-name="HUD" data-source-line="7" id="part2-lifeline"><g><title>GNOME . HUD</title><rect fill="#000000" fill-opacity="0.00000" height="926.0443" width="8" x="217.9441" y="136.032"/><line style="stroke:#000000;stroke-width:1;stroke-dasharray:5,5;" x1="221.7623" x2="221.7623" y1="136.032" y2="1062.0764"/></g></g><g class="participant-lifeline" data-entity-uid="part3" data-qualified-name="Coordinator" data-source-line="8" id="part3-lifeline"><g><title>Coordinator</title><rect fill="#000000" fill-opacity="0.00000" height="926.0443" width="8" x="456.9353" y="136.032"/><line style="stroke:#000000;stroke-width:1;stroke-dasharray:5,5;" x1="460.1334" x2="460.1334" y1="136.032" y2="1062.0764"/></g></g><g class="participant-lifeline" data-entity-uid="part4" data-qualified-name="Workers" data-source-line="9" id="part4-lifeline"><g><title>Workers . companions</title><rect fill="#000000" fill-opacity="0.00000" height="926.0443" width="8" x="753.3895" y="136.032"/><line style="stroke:#000000;stroke-width:1;stroke-dasharray:5,5;" x1="757.1618" x2="757.1618" y1="136.032" y2="1062.0764"/></g></g><g class="participant-lifeline" data-entity-uid="part5" data-qualified-name="Journal" data-source-line="10" id="part5-lifeline"><g><title>Checkpoint . recovery journal</title><rect fill="#000000" fill-opacity="0.00000" height="926.0443" width="8" x="1030.5127" y="136.032"/><line style="stroke:#000000;stroke-width:1;stroke-dasharray:5,5;" x1="1033.7381" x2="1033.7381" y1="136.032" y2="1062.0764"/></g></g><g class="participant participant-head" data-entity-uid="part1" data-qualified-name="User" data-source-line="6" id="part1-head"><text fill="#000000" font-family="sans-serif" font-size="14" lengthAdjust="spacing" textLength="30.6179" x="25" y="131.93">User</text><ellipse cx="43.3089" cy="64.9641" fill="#FFFFFF" rx="8" ry="8" style="stroke:#000000;stroke-width:1;"/><path d="M43.3089,72.9641 L43.3089,99.9641 M30.3089,80.9641 L56.3089,80.9641 M43.3089,99.9641 L30.3089,114.9641 M43.3089,99.9641 L56.3089,114.9641" fill="none" style="stroke:#000000;stroke-width:1;"/></g><g class="participant participant-tail" data-entity-uid="part1" data-qualified-name="User" data-source-line="6" id="part1-tail"><text fill="#000000" font-family="sans-serif" font-size="14" lengthAdjust="spacing" textLength="30.6179" x="25" y="1076.0423">User</text><ellipse cx="43.3089" cy="1089.1443" fill="#FFFFFF" rx="8" ry="8" style="stroke:#000000;stroke-width:1;"/><path d="M43.3089,1097.1443 L43.3089,1124.1443 M30.3089,1105.1443 L56.3089,1105.1443 M43.3089,1124.1443 L30.3089,1139.1443 M43.3089,1124.1443 L56.3089,1139.1443" fill="none" style="stroke:#000000;stroke-width:1;"/></g><g class="participant participant-head" data-entity-uid="part2" data-qualified-name="HUD" data-source-line="7" id="part2-head"><rect fill="#FFFFFF" height="29.0679" rx="2.5" ry="2.5" style="stroke:#000000;stroke-width:1;" width="108.3636" x="167.7623" y="100.9641"/><text fill="#000000" font-family="sans-serif" font-size="14" lengthAdjust="spacing" textLength="98.3636" x="172.7623" y="120.93">GNOME + HUD</text></g><g class="participant participant-tail" data-entity-uid="part2" data-qualified-name="HUD" data-source-line="7" id="part2-tail"><rect fill="#FFFFFF" height="29.0679" rx="2.5" ry="2.5" style="stroke:#000000;stroke-width:1;" width="108.3636" x="167.7623" y="1066.0764"/><text fill="#000000" font-family="sans-serif" font-size="14" lengthAdjust="spacing" textLength="98.3636" x="172.7623" y="1086.0423">GNOME + HUD</text></g><g class="participant participant-head" data-entity-uid="part3" data-qualified-name="Coordinator" data-source-line="8" id="part3-head"><rect fill="#FFFFFF" height="29.0679" rx="2.5" ry="2.5" style="stroke:#000000;stroke-width:1;" width="89.6037" x="416.1334" y="100.9641"/><text fill="#000000" font-family="sans-serif" font-size="14" lengthAdjust="spacing" textLength="79.6037" x="421.1334" y="120.93">Coordinator</text></g><g class="participant participant-tail" data-entity-uid="part3" data-qualified-name="Coordinator" data-source-line="8" id="part3-tail"><rect fill="#FFFFFF" height="29.0679" rx="2.5" ry="2.5" style="stroke:#000000;stroke-width:1;" width="89.6037" x="416.1334" y="1066.0764"/><text fill="#000000" font-family="sans-serif" font-size="14" lengthAdjust="spacing" textLength="79.6037" x="421.1334" y="1086.0423">Coordinator</text></g><g class="participant participant-head" data-entity-uid="part4" data-qualified-name="Workers" data-source-line="9" id="part4-head"><rect fill="#FFFFFF" height="29.0679" rx="2.5" ry="2.5" style="stroke:#000000;stroke-width:1;" width="158.4554" x="678.1618" y="100.9641"/><text fill="#000000" font-family="sans-serif" font-size="14" lengthAdjust="spacing" textLength="148.4554" x="683.1618" y="120.93">Workers / companions</text></g><g class="participant participant-tail" data-entity-uid="part4" data-qualified-name="Workers" data-source-line="9" id="part4-tail"><rect fill="#FFFFFF" height="29.0679" rx="2.5" ry="2.5" style="stroke:#000000;stroke-width:1;" width="158.4554" x="678.1618" y="1066.0764"/><text fill="#000000" font-family="sans-serif" font-size="14" lengthAdjust="spacing" textLength="148.4554" x="683.1618" y="1086.0423">Workers / companions</text></g><g class="participant participant-head" data-entity-uid="part5" data-qualified-name="Journal" data-source-line="10" id="part5-head"><text fill="#000000" font-family="sans-serif" font-size="14" lengthAdjust="spacing" textLength="193.5492" x="934.7381" y="131.93">Checkpoint / recovery journal</text><path d="M1016.5127,80.9641 C1016.5127,70.9641 1034.5127,70.9641 1034.5127,70.9641 C1034.5127,70.9641 1052.5127,70.9641 1052.5127,80.9641 L1052.5127,106.9641 C1052.5127,116.9641 1034.5127,116.9641 1034.5127,116.9641 C1034.5127,116.9641 1016.5127,116.9641 1016.5127,106.9641 L1016.5127,80.9641" fill="#FFFFFF" style="stroke:#000000;stroke-width:1;"/><path d="M1016.5127,80.9641 C1016.5127,90.9641 1034.5127,90.9641 1034.5127,90.9641 C1034.5127,90.9641 1052.5127,90.9641 1052.5127,80.9641" fill="none" style="stroke:#000000;stroke-width:1;"/></g><g class="participant participant-tail" data-entity-uid="part5" data-qualified-name="Journal" data-source-line="10" id="part5-tail"><text fill="#000000" font-family="sans-serif" font-size="14" lengthAdjust="spacing" textLength="193.5492" x="934.7381" y="1076.0423">Checkpoint / recovery journal</text><path d="M1016.5127,1090.1443 C1016.5127,1080.1443 1034.5127,1080.1443 1034.5127,1080.1443 C1034.5127,1080.1443 1052.5127,1080.1443 1052.5127,1090.1443 L1052.5127,1116.1443 C1052.5127,1126.1443 1034.5127,1126.1443 1034.5127,1126.1443 C1034.5127,1126.1443 1016.5127,1126.1443 1016.5127,1116.1443 L1016.5127,1090.1443" fill="#FFFFFF" style="stroke:#000000;stroke-width:1;"/><path d="M1016.5127,1090.1443 C1016.5127,1100.1443 1034.5127,1100.1443 1034.5127,1100.1443 C1034.5127,1100.1443 1052.5127,1100.1443 1052.5127,1090.1443" fill="none" style="stroke:#000000;stroke-width:1;"/></g><g class="message" data-entity-1="part1" data-entity-2="part2" data-source-line="11" id="msg1"><polygon fill="#000000" points="209.9441,165.738,219.9441,169.738,209.9441,173.738,213.9441,169.738" style="stroke:#000000;stroke-width:1;stroke-linejoin:miter;stroke-miterlimit:10;"/><line style="stroke:#000000;stroke-width:1;" x1="43.3089" x2="215.9441" y1="169.738" y2="169.738"/><text fill="#000000" font-family="sans-serif" font-size="13" lengthAdjust="spacing" textLength="154.6351" x="50.3089" y="163.929">Confirm native shutdown</text></g><g class="message" data-entity-1="part2" data-entity-2="part3" data-source-line="12" id="msg2"><polygon fill="#000000" points="448.9353,197.4441,458.9353,201.4441,448.9353,205.4441,452.9353,201.4441" style="stroke:#000000;stroke-width:1;stroke-linejoin:miter;stroke-miterlimit:10;"/><line style="stroke:#000000;stroke-width:1;" x1="221.9441" x2="454.9353" y1="201.4441" y2="201.4441"/><text fill="#000000" font-family="sans-serif" font-size="13" lengthAdjust="spacing" textLength="94.9261" x="228.9441" y="195.635">Scoped request</text></g><g class="message" data-entity-1="part3" data-entity-2="part4" data-source-line="13" id="msg3"><polygon fill="#000000" points="745.3895,229.1501,755.3895,233.1501,745.3895,237.1501,749.3895,233.1501" style="stroke:#000000;stroke-width:1;stroke-linejoin:miter;stroke-miterlimit:10;"/><line style="stroke:#000000;stroke-width:1;" x1="460.9353" x2="751.3895" y1="233.1501" y2="233.1501"/><text fill="#000000" font-family="sans-serif" font-size="13" lengthAdjust="spacing" textLength="242.0342" x="467.9353" y="227.3411">Stop/join startup work; await mutations</text></g><g class="message" data-entity-1="part4" data-entity-2="part3" data-source-line="14" id="msg4"><polygon fill="#000000" points="471.9353,260.8561,461.9353,264.8561,471.9353,268.8561,467.9353,264.8561" style="stroke:#000000;stroke-width:1;stroke-linejoin:miter;stroke-miterlimit:10;"/><line style="stroke:#000000;stroke-width:1;stroke-dasharray:2,2;" x1="465.9353" x2="756.3895" y1="264.8561" y2="264.8561"/><text fill="#000000" font-family="sans-serif" font-size="13" lengthAdjust="spacing" textLength="102.8821" x="477.9353" y="259.0471">Barrier complete</text></g><g class="message" data-entity-1="part3" data-entity-2="part5" data-source-line="15" id="msg5"><polygon fill="#000000" points="1022.5127,292.5621,1032.5127,296.5621,1022.5127,300.5621,1026.5127,296.5621" style="stroke:#000000;stroke-width:1;stroke-linejoin:miter;stroke-miterlimit:10;"/><line style="stroke:#000000;stroke-width:1;" x1="460.9353" x2="1028.5127" y1="296.5621" y2="296.5621"/><text fill="#000000" font-family="sans-serif" font-size="13" lengthAdjust="spacing" textLength="239.7852" x="467.9353" y="290.7531">Claim operation / record compensation</text></g><g class="message" data-entity-1="part3" data-entity-2="part4" data-source-line="16" id="msg6"><polygon fill="#000000" points="745.3895,324.2681,755.3895,328.2681,745.3895,332.2681,749.3895,328.2681" style="stroke:#000000;stroke-width:1;stroke-linejoin:miter;stroke-miterlimit:10;"/><line style="stroke:#000000;stroke-width:1;" x1="460.9353" x2="751.3895" y1="328.2681" y2="328.2681"/><text fill="#000000" font-family="sans-serif" font-size="13" lengthAdjust="spacing" textLength="247.1562" x="467.9353" y="322.4591">Capture checkpoint and prepare profiles</text></g><g class="message" data-entity-1="part4" data-entity-2="part5" data-source-line="17" id="msg7"><polygon fill="#000000" points="1022.5127,355.9741,1032.5127,359.9741,1022.5127,363.9741,1026.5127,359.9741" style="stroke:#000000;stroke-width:1;stroke-linejoin:miter;stroke-miterlimit:10;"/><line style="stroke:#000000;stroke-width:1;" x1="757.3895" x2="1028.5127" y1="359.9741" y2="359.9741"/><text fill="#000000" font-family="sans-serif" font-size="13" lengthAdjust="spacing" textLength="85.9691" x="764.3895" y="354.1651">Save evidence</text></g><g class="message" data-entity-1="part4" data-entity-2="part3" data-source-line="18" id="msg8"><polygon fill="#000000" points="471.9353,387.6802,461.9353,391.6802,471.9353,395.6802,467.9353,391.6802" style="stroke:#000000;stroke-width:1;stroke-linejoin:miter;stroke-miterlimit:10;"/><line style="stroke:#000000;stroke-width:1;stroke-dasharray:2,2;" x1="465.9353" x2="756.3895" y1="391.6802" y2="391.6802"/><text fill="#000000" font-family="sans-serif" font-size="13" lengthAdjust="spacing" textLength="110.8511" x="477.9353" y="385.8711">Preparation result</text></g><g class="message" data-entity-1="part3" data-entity-2="part2" data-source-line="19" id="msg9"><polygon fill="#000000" points="232.9441,419.3862,222.9441,423.3862,232.9441,427.3862,228.9441,423.3862" style="stroke:#000000;stroke-width:1;stroke-linejoin:miter;stroke-miterlimit:10;"/><line style="stroke:#000000;stroke-width:1;" x1="226.9441" x2="459.9353" y1="423.3862" y2="423.3862"/><text fill="#000000" font-family="sans-serif" font-size="13" lengthAdjust="spacing" textLength="82.9531" x="238.9441" y="417.5772">Scoped result</text></g><path d="M15,438.3862 L77.459,438.3862 L77.459,448.0922 L67.459,458.0922 L15,458.0922 L15,438.3862" fill="#FFFFFF" style="stroke:#000000;stroke-width:1;"/><rect fill="none" height="606.6902" style="stroke:#000000;stroke-width:1;" width="1129.2874" x="15" y="438.3862"/><text fill="#000000" font-family="sans-serif" font-size="13" font-weight="700" lengthAdjust="spacing" textLength="17.459" x="30" y="453.2832">alt</text><text fill="#000000" font-family="sans-serif" font-size="11" font-weight="700" lengthAdjust="spacing" textLength="150.4899" x="92.459" y="452.1451">[Ready and still authorized]</text><g class="message" data-entity-1="part2" data-entity-2="part2" data-source-line="21" id="msg10"><line style="stroke:#000000;stroke-width:1;" x1="221.9441" x2="263.9441" y1="481.7982" y2="481.7982"/><line style="stroke:#000000;stroke-width:1;" x1="263.9441" x2="263.9441" y1="481.7982" y2="494.7982"/><line style="stroke:#000000;stroke-width:1;" x1="222.9441" x2="263.9441" y1="494.7982" y2="494.7982"/><polygon fill="#000000" points="232.9441,490.7982,222.9441,494.7982,232.9441,498.7982,228.9441,494.7982" style="stroke:#000000;stroke-width:1;stroke-linejoin:miter;stroke-miterlimit:10;"/><text fill="#000000" font-family="sans-serif" font-size="13" lengthAdjust="spacing" textLength="187.0702" x="228.9441" y="475.9892">Paint result; visible countdown</text></g><g class="message" data-entity-1="part2" data-entity-2="part3" data-source-line="22" id="msg11"><polygon fill="#000000" points="448.9353,522.5042,458.9353,526.5042,448.9353,530.5042,452.9353,526.5042" style="stroke:#000000;stroke-width:1;stroke-linejoin:miter;stroke-miterlimit:10;"/><line style="stroke:#000000;stroke-width:1;" x1="221.9441" x2="454.9353" y1="526.5042" y2="526.5042"/><text fill="#000000" font-family="sans-serif" font-size="13" lengthAdjust="spacing" textLength="159.1461" x="228.9441" y="520.6952">Painted + commit receipts</text></g><g class="message" data-entity-1="part3" data-entity-2="part5" data-source-line="23" id="msg12"><polygon fill="#000000" points="1022.5127,554.2102,1032.5127,558.2102,1022.5127,562.2102,1026.5127,558.2102" style="stroke:#000000;stroke-width:1;stroke-linejoin:miter;stroke-miterlimit:10;"/><line style="stroke:#000000;stroke-width:1;" x1="460.9353" x2="1028.5127" y1="558.2102" y2="558.2102"/><text fill="#000000" font-family="sans-serif" font-size="13" lengthAdjust="spacing" textLength="236.6262" x="467.9353" y="552.4012">Verify exact operation and preparation</text></g><g class="message" data-entity-1="part3" data-entity-2="part4" data-source-line="24" id="msg13"><polygon fill="#000000" points="745.3895,585.9163,755.3895,589.9163,745.3895,593.9163,749.3895,589.9163" style="stroke:#000000;stroke-width:1;stroke-linejoin:miter;stroke-miterlimit:10;"/><line style="stroke:#000000;stroke-width:1;" x1="460.9353" x2="751.3895" y1="589.9163" y2="589.9163"/><text fill="#000000" font-family="sans-serif" font-size="13" lengthAdjust="spacing" textLength="272.4542" x="467.9353" y="584.1072">Close proven managed apps while Shell lives</text></g><g class="message" data-entity-1="part4" data-entity-2="part5" data-source-line="25" id="msg14"><polygon fill="#000000" points="1022.5127,617.6223,1032.5127,621.6223,1022.5127,625.6223,1026.5127,621.6223" style="stroke:#000000;stroke-width:1;stroke-linejoin:miter;stroke-miterlimit:10;"/><line style="stroke:#000000;stroke-width:1;" x1="757.3895" x2="1028.5127" y1="621.6223" y2="621.6223"/><text fill="#000000" font-family="sans-serif" font-size="13" lengthAdjust="spacing" textLength="253.1232" x="764.3895" y="615.8133">Record exact invocations and stop results</text></g><g class="message" data-entity-1="part4" data-entity-2="part3" data-source-line="26" id="msg15"><polygon fill="#000000" points="471.9353,649.3283,461.9353,653.3283,471.9353,657.3283,467.9353,653.3283" style="stroke:#000000;stroke-width:1;stroke-linejoin:miter;stroke-miterlimit:10;"/><line style="stroke:#000000;stroke-width:1;stroke-dasharray:2,2;" x1="465.9353" x2="756.3895" y1="653.3283" y2="653.3283"/><text fill="#000000" font-family="sans-serif" font-size="13" lengthAdjust="spacing" textLength="127.9721" x="477.9353" y="647.5193">Bounded completion</text></g><g class="message" data-entity-1="part3" data-entity-2="part5" data-source-line="27" id="msg16"><polygon fill="#000000" points="1022.5127,681.0343,1032.5127,685.0343,1022.5127,689.0343,1026.5127,685.0343" style="stroke:#000000;stroke-width:1;stroke-linejoin:miter;stroke-miterlimit:10;"/><line style="stroke:#000000;stroke-width:1;" x1="460.9353" x2="1028.5127" y1="685.0343" y2="685.0343"/><text fill="#000000" font-family="sans-serif" font-size="13" lengthAdjust="spacing" textLength="230.0872" x="467.9353" y="679.2253">Recheck ownership and authorization</text></g><g class="message" data-entity-1="part3" data-entity-2="part2" data-source-line="28" id="msg17"><polygon fill="#000000" points="232.9441,712.7403,222.9441,716.7403,232.9441,720.7403,228.9441,716.7403" style="stroke:#000000;stroke-width:1;stroke-linejoin:miter;stroke-miterlimit:10;"/><line style="stroke:#000000;stroke-width:1;stroke-dasharray:2,2;" x1="226.9441" x2="459.9353" y1="716.7403" y2="716.7403"/><text fill="#000000" font-family="sans-serif" font-size="13" lengthAdjust="spacing" textLength="163.1891" x="238.9441" y="710.9313">Matching prepared receipt</text></g><g class="message" data-entity-1="part2" data-entity-2="part2" data-source-line="29" id="msg18"><line style="stroke:#000000;stroke-width:1;" x1="221.9441" x2="263.9441" y1="748.4463" y2="748.4463"/><line style="stroke:#000000;stroke-width:1;" x1="263.9441" x2="263.9441" y1="748.4463" y2="761.4463"/><line style="stroke:#000000;stroke-width:1;" x1="222.9441" x2="263.9441" y1="761.4463" y2="761.4463"/><polygon fill="#000000" points="232.9441,757.4463,222.9441,761.4463,232.9441,765.4463,228.9441,761.4463" style="stroke:#000000;stroke-width:1;stroke-linejoin:miter;stroke-miterlimit:10;"/><text fill="#000000" font-family="sans-serif" font-size="13" lengthAdjust="spacing" textLength="202.8132" x="228.9441" y="742.6373">Invoke saved native confirmation</text></g><line style="stroke:#000000;stroke-width:1;stroke-dasharray:2,2;" x1="15" x2="1144.2874" y1="770.4463" y2="770.4463"/><text fill="#000000" font-family="sans-serif" font-size="11" font-weight="700" lengthAdjust="spacing" textLength="166.4178" x="20" y="782.2052">[Cancel before native handoff]</text><g class="message" data-entity-1="part1" data-entity-2="part2" data-source-line="31" id="msg19"><polygon fill="#000000" points="209.9441,806.1342,219.9441,810.1342,209.9441,814.1342,213.9441,810.1342" style="stroke:#000000;stroke-width:1;stroke-linejoin:miter;stroke-miterlimit:10;"/><line style="stroke:#000000;stroke-width:1;" x1="43.3089" x2="215.9441" y1="810.1342" y2="810.1342"/><text fill="#000000" font-family="sans-serif" font-size="13" lengthAdjust="spacing" textLength="40.469" x="50.3089" y="804.3252">Cancel</text></g><g class="message" data-entity-1="part2" data-entity-2="part2" data-source-line="32" id="msg20"><line style="stroke:#000000;stroke-width:1;" x1="221.9441" x2="263.9441" y1="841.8403" y2="841.8403"/><line style="stroke:#000000;stroke-width:1;" x1="263.9441" x2="263.9441" y1="841.8403" y2="854.8403"/><line style="stroke:#000000;stroke-width:1;" x1="222.9441" x2="263.9441" y1="854.8403" y2="854.8403"/><polygon fill="#000000" points="232.9441,850.8403,222.9441,854.8403,232.9441,858.8403,228.9441,854.8403" style="stroke:#000000;stroke-width:1;stroke-linejoin:miter;stroke-miterlimit:10;"/><text fill="#000000" font-family="sans-serif" font-size="13" lengthAdjust="spacing" textLength="224.9912" x="228.9441" y="836.0313">Release local input grab immediately</text></g><g class="message" data-entity-1="part2" data-entity-2="part3" data-source-line="33" id="msg21"><polygon fill="#000000" points="448.9353,882.5463,458.9353,886.5463,448.9353,890.5463,452.9353,886.5463" style="stroke:#000000;stroke-width:1;stroke-linejoin:miter;stroke-miterlimit:10;"/><line style="stroke:#000000;stroke-width:1;" x1="221.9441" x2="454.9353" y1="886.5463" y2="886.5463"/><text fill="#000000" font-family="sans-serif" font-size="13" lengthAdjust="spacing" textLength="121.0301" x="228.9441" y="880.7373">Scoped cancellation</text></g><g class="message" data-entity-1="part3" data-entity-2="part4" data-source-line="34" id="msg22"><polygon fill="#000000" points="745.3895,914.2523,755.3895,918.2523,745.3895,922.2523,749.3895,918.2523" style="stroke:#000000;stroke-width:1;stroke-linejoin:miter;stroke-miterlimit:10;"/><line style="stroke:#000000;stroke-width:1;" x1="460.9353" x2="751.3895" y1="918.2523" y2="918.2523"/><text fill="#000000" font-family="sans-serif" font-size="13" lengthAdjust="spacing" textLength="80.3791" x="467.9353" y="912.4433">Stop and join</text></g><g class="message" data-entity-1="part3" data-entity-2="part5" data-source-line="35" id="msg23"><polygon fill="#000000" points="1022.5127,945.9583,1032.5127,949.9583,1022.5127,953.9583,1026.5127,949.9583" style="stroke:#000000;stroke-width:1;stroke-linejoin:miter;stroke-miterlimit:10;"/><line style="stroke:#000000;stroke-width:1;" x1="460.9353" x2="1028.5127" y1="949.9583" y2="949.9583"/><text fill="#000000" font-family="sans-serif" font-size="13" lengthAdjust="spacing" textLength="191.7372" x="467.9353" y="944.1493">Compensate prepared changes</text></g><g class="message" data-entity-1="part5" data-entity-2="part3" data-source-line="36" id="msg24"><polygon fill="#000000" points="471.9353,977.6643,461.9353,981.6643,471.9353,985.6643,467.9353,981.6643" style="stroke:#000000;stroke-width:1;stroke-linejoin:miter;stroke-miterlimit:10;"/><line style="stroke:#000000;stroke-width:1;stroke-dasharray:2,2;" x1="465.9353" x2="1033.5127" y1="981.6643" y2="981.6643"/><text fill="#000000" font-family="sans-serif" font-size="13" lengthAdjust="spacing" textLength="226.5252" x="477.9353" y="975.8553">Recovery complete or recovery-failed</text></g><path d="M465,994.6643 L465,1039.6643 L739,1039.6643 L739,1004.6643 L729,994.6643 L465,994.6643" fill="#FFFFFF" style="stroke:#000000;stroke-width:1;"/><path d="M729,994.6643 L729,1004.6643 L739,1004.6643 L729,994.6643" fill="#FFFFFF" style="stroke:#000000;stroke-width:1;"/><text fill="#000000" font-family="sans-serif" font-size="13" lengthAdjust="spacing" textLength="253.7212" x="471" y="1013.5613">Ownership remains held during recovery.</text><text fill="#000000" font-family="sans-serif" font-size="13" lengthAdjust="spacing" textLength="249.9122" x="471" y="1031.2673">A failed recovery blocks a new operation.</text><?plantuml-src VLJRSjCm47ttLopbiOI-qnbcYY5SPdgPP0hF6saTgv4b8Sa9uOcFu0lv4bQMdJXfqgUcrbxEddDsNyMQ6WAdKPaYh9HnwB611OhLqjlMoD9gw-7rz6PQJgUZY52Zj1jbbb2X3ZHwaLHXg-FKcdY7N7kE9ip9gwg8Acg2qffA-OOarsWZ5p7mxyzVS9vIVbJMlE5_hAq0ZGI1Hf3MtVS2HMGmZu5ymR5H2UNGHBZuV7T_-makuSlZnml0aFuU19JMUgaCSlPXuW_hL-G3N86m3N_Y9g6hq3yK4YCkC11Sb3M9bREAqwx0ax1hybjuigqtgBkSR_btaV31v7r20U-6SO6xgpNjPYxIAmUDe77mN5Z7n7ZwsLA8nVYHOmUq71UjktfYC10YpzCwsF3RDU06LOIcZHrVeHWo9iywVK3l5UDCSskATDoh7oODmDveW75bSVhflUnIoOGipLce9RhOUWAnvo_fckMcf7IbD8sWZdlFaIcZjPB4BdXXceUzUHXTOFiT0yfYxFZjGb17c17AROSeHAKrO1jhwzLlaWNq4kNK1qpGS-Orh5LG2pQpu1t9Ui99GRiixdYPs6fKAY18kHWAE4luzxGiMw1VRFSHxtlMCkDmdd9jGyVicWmqQ7392D2v09kQkOPvpHi5ckt8C4xoFiiAPmZAhAt8Xkg9igudOfp_t6BfVf0SB7OAyq77P11WAhbQhLpNQb3ZrCGxPMunYZfTejvJSY3vIC6lFCUADv0z9OTr57axSttYGyP-JGS75bHPjcSVLZCOMrK57Ers5tlKPaQQqiNGJ9fcybmROUbn0QhXewSmajwUSKjlpuER1oyUWOwbT0XUeBOSzfJs30cUQ9da7yAUopSRRjnm8e0_3uTlKY4xYNV4M7xmQbcpLQk3GmltEoazDRm70TXt4cJharX3fRS5t42kjZ-h2oPlnMu3Gvlz2d0eyRYfPS4__WC0?></g></svg>